<svg xmlns="http://www.w3.org/2000/svg" viewBox="0 0 64 64">
  <circle cx="32" cy="32" r="30" fill="#e8c4a0"/>
  <circle cx="32" cy="48" r="18" fill="#d4a070"/>
  <path d="M30 50 C30 30, 20 20, 10 12" stroke="#2d6b1e" stroke-width="3" fill="none" stroke-linecap="round"/>
  <path d="M32 50 C32 28, 38 18, 50 10" stroke="#2d6b1e" stroke-width="3" fill="none" stroke-linecap="round"/>
  <ellipse cx="8" cy="11" rx="12" ry="6" fill="#3a8f28" transform="rotate(-30 8 11)"/>
  <ellipse cx="16" cy="8" rx="10" ry="5" fill="#4aaa35" transform="rotate(10 16 8)"/>
  <ellipse cx="52" cy="9" rx="12" ry="6" fill="#3a8f28" transform="rotate(30 52 9)"/>
  <ellipse cx="44" cy="6" rx="10" ry="5" fill="#4aaa35" transform="rotate(-10 44 6)"/>
  <ellipse cx="30" cy="5" rx="8" ry="4" fill="#4aaa35" transform="rotate(-5 30 5)"/>
  <circle cx="48" cy="44" r="6" fill="#f0c040"/>
  <path d="M48 38 L48 33 M54 44 L58 42 M48 50 L48 55 M42 44 L38 42 M53 39 L56 36 M43 49 L40 52 M53 49 L56 52 M43 39 L40 36" stroke="#f0c040" stroke-width="1.5" stroke-linecap="round"/>
</svg>